<svg xmlns="http://www.w3.org/2000/svg" id="outputsvg" width="1000" class="img-fluid" style="transform:matrix(1.69,0,0,1.69,0,0);transform-origin:50% 50%;cursor:move;max-height:368.98px" height="1000" viewBox="0 0 10000 10000"><g id="l5Tunz5Ur24V4Xc6XTNCdui" fill="#000" style="transform:none"><g style="transform:none"><path id="p65LSAtpR" d="M295 9822 c-53 -19 -95 -75 -95 -129 0 -18 -5 -44 -12 -57 -26 -58 25 -134 182 -266 35 -30 70 -60 76 -66 11 -9 20 -57 44 -224 17 -114 23 -430 10 -480 -6 -25 -13 -70 -15 -100 -1 -30 -8 -93 -15 -139 -13 -84 -8 -210 20 -496 5 -55 13 -177 16 -270 6 -159 5 -174 -14 -215 -24 -52 -102 -130 -152 -152 -83 -37 -114 -48 -140 -48 -69 0 -145 -62 -168 -136 -8 -27 -7 -45 4 -78 21 -62 120 -158 203 -198 l66 -32 395 0 c313 0 402 2 428 13 28 12 42 12 87 1 46 -11 73 -11 172 3 65 8 134 20 153 25 52 13 138 56 212 104 13 8 39 19 57 23 20 4 58 30 95 64 100 91 139 124 179 154 60 45 74 64 108 151 18 44 37 87 43 95 15 20 11 150 -9 256 -9 50 -21 115 -26 145 -16 96 -26 144 -34 165 -4 11 -56 68 -116 127 -60 58 -109 112 -109 120 1 7 26 26 58 41 216 108 334 195 366 272 9 21 16 61 16 91 0 29 5 56 10 59 6 3 10 22 10 42 0 19 16 77 35 128 28 75 33 98 25 124 -5 17 -5 44 0 60 9 34 4 63 -35 176 -39 114 -70 175 -118 226 -23 24 -58 65 -78 89 -68 83 -92 101 -179 132 -47 16 -103 34 -125 39 -22 6 -62 24 -90 42 -117 76 -194 94 -257 61 -22 -11 -41 -14 -67 -8 -32 7 -362 16 -496 13 -27 0 -144 -1 -260 -2 l-210 -2 -60 28 c-61 29 -151 43 -190 29z m126 -106 c106 -47 187 -52 594 -37 119 4 456 -8 478 -17 41 -17 75 -15 113 9 30 18 38 19 71 8 21 -6 63 -29 93 -49 31 -21 80 -45 110 -53 30 -8 89 -27 131 -42 74 -26 77 -28 170 -136 102 -119 119 -147 157 -254 33 -93 37 -228 9 -295 -27 -65 -49 -164 -54 -244 -5 -69 -5 -70 -61 -125 -41 -41 -96 -77 -197 -131 -77 -41 -162 -84 -190 -95 -86 -35 -80 -48 91 -214 l147 -143 34 -187 c44 -244 44 -276 1 -371 -44 -99 -43 -97 -118 -160 -36 -30 -98 -85 -138 -122 -50 -47 -80 -68 -98 -68 -14 0 -45 -14 -70 -31 -72 -49 -185 -98 -254 -109 -86 -13 -197 -13 -259 2 -44 10 -53 9 -78 -8 -25 -16 -45 -18 -175 -16 -82 2 -172 3 -200 4 -29 1 -66 1 -83 0 -16 0 -52 0 -80 0 -27 0 -90 -1 -140 -3 -79 -4 -96 -1 -138 19 -56 28 -167 134 -167 160 0 30 55 82 88 82 39 0 148 36 201 67 67 39 129 101 159 158 27 49 27 52 26 250 0 110 -6 250 -13 310 -20 183 -26 472 -11 535 20 86 24 158 23 395 0 172 -5 252 -22 365 -12 80 -24 152 -27 161 -2 9 -58 64 -124 124 -66 59 -124 114 -129 123 -14 27 -1 118 21 141 24 27 43 26 109 -3z"/><path id="p13iQKBtkg" d="M1105 9295 c-38 -30 -84 -69 -101 -88 -30 -32 -31 -36 -32 -133 -1 -61 5 -122 15 -159 8 -33 15 -85 15 -115 0 -30 4 -60 9 -66 5 -7 11 -72 13 -145 3 -138 12 -181 46 -236 19 -32 21 -33 92 -33 40 0 91 5 113 11 22 6 69 14 105 19 36 4 78 11 94 15 40 11 113 62 128 88 24 46 73 97 129 137 33 23 65 53 73 68 22 43 43 127 66 265 19 111 20 131 8 145 -8 9 -29 47 -46 84 -18 36 -49 81 -69 98 -35 31 -38 32 -97 25 -103 -13 -138 -9 -235 29 -51 20 -110 36 -130 36 -20 0 -56 2 -81 4 -42 5 -49 2 -115 -49z m260 -65 c19 -14 130 -49 175 -55 25 -3 68 -2 95 4 45 9 52 7 73 -12 40 -37 76 -126 74 -182 -1 -60 -19 -163 -39 -225 -14 -45 -57 -100 -78 -100 -16 0 -91 -77 -122 -126 -37 -58 -107 -93 -184 -92 -30 0 -65 -5 -77 -11 -11 -6 -48 -14 -80 -17 -58 -6 -59 -6 -71 23 -6 16 -14 92 -16 168 -5 138 -13 211 -34 310 -22 100 -23 114 -12 145 7 22 7 38 0 51 -11 21 6 41 91 103 43 32 47 33 120 28 41 -2 80 -8 85 -12z"/><path id="pdtwajsQt" d="M1160 8131 c-49 -12 -84 -27 -97 -42 -6 -8 -17 -43 -24 -79 -6 -36 -18 -92 -26 -125 -25 -106 -26 -117 -14 -214 14 -115 15 -186 6 -262 -7 -53 -5 -59 31 -118 31 -49 46 -63 74 -71 218 -57 238 -60 266 -29 10 11 41 37 69 57 171 122 188 144 224 304 11 47 30 107 42 132 20 40 21 49 10 83 -7 22 -28 59 -47 83 -19 25 -54 75 -79 112 -53 79 -82 103 -144 122 -25 8 -63 21 -83 30 -44 19 -159 28 -208 17z m182 -111 c18 -11 45 -20 60 -20 28 0 98 -52 98 -74 0 -6 16 -29 35 -51 19 -22 49 -61 66 -87 28 -44 29 -48 16 -80 -7 -18 -19 -60 -26 -93 -35 -160 -53 -188 -181 -275 -36 -24 -74 -52 -84 -62 -12 -11 -24 -14 -35 -9 -9 4 -44 14 -77 21 -71 16 -82 23 -107 67 -15 27 -16 39 -8 71 8 27 7 76 -1 163 -14 154 -14 192 1 249 6 25 16 74 20 110 12 81 24 90 118 90 55 0 80 -5 105 -20z"/><path id="p9PY3LFn9" d="M3420 9789 c-14 -6 -69 -11 -123 -10 -63 1 -107 -3 -125 -12 -19 -10 -66 -13 -167 -11 -132 2 -142 1 -182 -22 -73 -42 -130 -149 -120 -224 6 -47 65 -129 117 -164 22 -14 42 -26 46 -26 3 0 13 -9 22 -19 10 -11 33 -24 52 -29 37 -9 38 -12 119 -267 26 -81 25 -170 -3 -370 -15 -98 -17 -158 -11 -330 4 -115 10 -248 14 -295 6 -60 4 -96 -5 -122 -10 -29 -10 -45 0 -80 10 -34 10 -97 2 -299 -12 -275 -15 -289 -65 -289 -26 -1 -122 -22 -153 -35 -20 -8 -26 -22 -44 -105 -15 -71 -12 -93 31 -186 21 -46 30 -54 97 -87 40 -20 100 -51 133 -69 44 -24 75 -33 122 -36 59 -4 69 -1 160 44 107 54 120 56 343 39 90 -7 227 5 290 25 14 4 45 14 70 21 111 32 175 95 210 207 23 73 -15 202 -74 251 -11 9 -40 14 -86 13 -38 -1 -72 3 -75 8 -11 18 -68 42 -129 57 -71 16 -89 31 -124 98 -25 47 -27 57 -26 195 0 80 6 182 13 225 28 182 42 286 62 449 11 99 6 171 -41 556 -5 47 -10 137 -10 200 l0 115 33 26 c49 39 158 97 213 114 31 9 92 15 167 15 l119 0 78 -41 c88 -45 196 -143 224 -204 10 -21 22 -64 26 -94 7 -59 60 -169 125 -259 61 -86 140 -122 216 -102 54 15 75 41 88 113 11 58 16 79 41 175 18 72 22 98 31 227 5 72 11 160 15 197 6 74 -12 139 -67 244 -33 64 -61 90 -104 99 -16 3 -49 16 -73 27 -41 20 -46 21 -158 8 -106 -12 -124 -12 -222 6 -129 23 -382 25 -654 5 -142 -10 -181 -10 -200 0 -22 12 -72 22 -168 34 -25 3 -56 0 -70 -6z m192 -114 c29 -20 146 -20 385 1 210 18 358 15 488 -11 72 -14 112 -16 200 -10 145 10 141 11 214 -16 53 -20 66 -30 85 -64 64 -117 79 -191 51 -258 -10 -25 -13 -57 -9 -118 5 -69 1 -105 -21 -204 -15 -66 -32 -146 -38 -178 -12 -69 -32 -85 -76 -63 -67 35 -168 205 -187 317 -14 82 -30 112 -95 183 -65 72 -159 139 -241 174 -57 23 -75 26 -188 26 -183 0 -251 -21 -422 -132 l-88 -57 0 -154 c0 -99 8 -216 22 -330 34 -273 31 -461 -12 -731 -29 -181 -34 -242 -34 -385 -1 -155 1 -175 22 -227 13 -32 42 -78 65 -103 38 -40 48 -46 106 -54 41 -7 80 -21 110 -41 41 -26 57 -30 113 -30 l65 0 19 -42 c57 -127 -30 -232 -226 -274 -52 -12 -113 -16 -200 -13 -325 7 -308 9 -412 -44 -51 -26 -104 -47 -118 -47 -14 0 -80 28 -148 62 -116 59 -124 65 -143 108 -25 54 -21 126 7 147 10 7 45 13 81 13 62 0 65 1 114 47 l50 47 -7 62 c-3 35 -1 165 6 289 10 180 10 232 0 256 -11 26 -10 32 9 53 26 27 27 72 4 99 -16 17 -18 50 -18 366 0 295 2 354 17 401 28 94 19 191 -36 365 -27 83 -59 176 -74 208 -24 55 -27 58 -58 55 -23 -2 -40 4 -56 19 -13 11 -33 24 -45 27 -26 8 -103 92 -103 113 0 27 28 78 59 107 l31 30 146 -2 c111 -1 154 3 175 14 37 19 88 18 111 -2 16 -16 21 -15 65 5 41 19 60 21 131 17 51 -3 91 -11 104 -21z"/><path id="pFyVdJLxk" d="M7810 9789 c-25 -4 -75 -8 -111 -8 -93 -1 -126 -25 -156 -111 -36 -106 -25 -200 33 -283 37 -52 89 -79 164 -85 66 -5 85 -20 116 -90 l24 -53 0 -452 c0 -423 -7 -595 -31 -777 -11 -88 -12 -97 -8 -340 l2 -185 -70 -70 c-78 -78 -153 -126 -245 -160 -92 -33 -108 -53 -108 -134 0 -82 17 -113 91 -163 74 -50 178 -87 315 -109 68 -11 444 -7 656 7 74 5 97 3 155 -17 87 -29 166 -30 213 -2 35 20 36 20 125 2 105 -21 344 -26 409 -7 53 15 71 30 116 100 58 89 66 130 45 246 -9 53 -23 135 -31 180 -10 62 -22 96 -45 128 -43 62 -87 78 -217 78 l-74 1 -96 -103 c-106 -112 -157 -142 -239 -142 -33 0 -55 -8 -88 -30 -50 -34 -67 -36 -121 -14 -116 48 -119 50 -135 101 -11 33 -13 58 -7 78 12 44 6 284 -8 327 -9 26 -10 55 -4 97 5 33 6 69 3 80 -7 28 18 109 36 116 31 12 132 17 202 10 l74 -7 70 -95 c92 -126 121 -154 191 -188 98 -48 143 -35 205 57 64 93 67 114 62 428 -4 282 -13 375 -42 407 -9 10 -25 35 -36 56 -28 54 -57 77 -96 79 -76 3 -140 -40 -159 -106 -7 -25 -9 -49 -5 -55 3 -6 0 -13 -7 -16 -23 -8 -180 -35 -302 -52 l-119 -16 -54 56 c-52 55 -64 85 -54 147 1 8 6 65 11 125 5 61 13 139 19 175 6 36 15 96 20 135 10 68 11 70 78 136 58 58 78 71 138 90 39 12 80 26 93 30 49 19 182 2 257 -32 22 -10 66 -28 98 -40 54 -20 63 -28 108 -96 27 -41 49 -77 49 -80 0 -7 125 -191 149 -220 25 -30 82 -63 109 -63 70 0 136 69 168 179 15 49 15 68 5 156 -11 89 -19 125 -52 243 -5 17 -13 47 -18 65 -13 49 -23 70 -42 91 -10 10 -25 34 -34 52 -9 19 -28 42 -43 51 -15 10 -39 30 -53 45 -34 36 -68 40 -250 34 -85 -2 -163 -4 -174 -4 -67 2 -95 0 -140 -11 -27 -7 -95 -15 -150 -18 -92 -4 -107 -2 -190 26 -87 30 -168 40 -179 22 -18 -29 -379 -35 -455 -7 -46 17 -88 18 -161 5z m789 -114 c99 -30 243 -34 339 -10 33 9 89 15 124 15 34 0 121 2 192 6 150 7 192 1 201 -26 3 -11 18 -25 33 -32 14 -7 31 -22 37 -33 6 -11 22 -38 37 -60 37 -57 88 -251 95 -361 6 -100 -3 -141 -41 -189 l-24 -30 -39 31 c-41 33 -73 77 -160 221 -83 139 -118 174 -199 202 -38 14 -78 31 -90 38 -25 16 -171 43 -234 43 -50 0 -194 -37 -253 -65 -21 -10 -73 -52 -117 -94 l-78 -76 -11 -85 c-6 -47 -17 -127 -25 -177 -8 -51 -18 -134 -22 -184 -4 -62 -11 -92 -20 -96 -19 -7 -18 -39 1 -47 10 -3 15 -19 15 -42 0 -49 35 -108 101 -168 l54 -48 95 6 c53 3 159 17 235 31 77 14 154 27 171 30 38 7 64 52 64 112 0 33 4 42 25 51 14 7 28 12 30 12 2 0 22 -28 45 -62 l42 -63 9 -295 8 -295 -32 -64 c-39 -76 -56 -90 -89 -73 -13 6 -35 16 -50 21 -17 6 -57 50 -105 113 -43 57 -93 118 -110 136 l-32 33 -153 -5 c-198 -6 -207 -7 -246 -31 -36 -21 -51 -57 -33 -79 6 -7 8 -16 4 -20 -12 -12 -13 -249 -1 -286 7 -20 12 -115 12 -225 1 -175 3 -194 24 -236 20 -41 31 -50 85 -73 34 -15 74 -34 89 -42 15 -8 53 -14 88 -14 52 0 68 5 103 29 28 19 59 31 94 34 92 10 143 40 244 144 104 106 135 119 185 80 14 -10 33 -17 44 -14 32 8 52 -27 66 -115 7 -46 20 -121 28 -167 15 -79 15 -86 -3 -125 -10 -23 -33 -59 -51 -79 l-32 -37 -172 0 c-114 0 -191 5 -231 15 -84 20 -106 19 -159 -11 l-47 -26 -87 27 -87 28 -271 -13 c-402 -20 -554 -5 -694 65 -84 42 -112 73 -108 114 3 30 8 34 68 55 36 12 92 40 125 61 61 39 198 164 218 200 8 13 12 108 13 285 1 146 7 303 14 350 7 54 14 285 17 628 5 532 4 544 -16 612 -16 53 -32 81 -65 115 -38 40 -48 45 -87 45 -131 1 -210 93 -180 210 23 87 22 87 181 95 121 6 143 5 158 -9 15 -13 50 -15 248 -13 200 2 233 4 255 19 13 10 31 16 39 13 8 -2 53 -16 99 -30z"/><path id="piBJdtrRP" d="M6267 9774 c-17 -17 -319 -45 -362 -33 -22 6 -55 6 -97 -2 -35 -6 -103 -15 -153 -19 -101 -8 -130 -17 -161 -51 -40 -44 -65 -113 -115 -309 -39 -152 -45 -209 -29 -267 12 -43 115 -273 122 -273 2 0 28 -9 58 -20 69 -25 130 -26 156 -2 11 10 32 27 47 37 46 30 85 96 93 156 3 30 14 72 24 94 10 22 21 51 25 65 10 34 23 48 70 78 107 68 269 132 332 132 107 0 279 -165 307 -296 4 -16 2 -77 -3 -135 -9 -90 -13 -106 -33 -122 -13 -11 -48 -42 -79 -70 -134 -125 -227 -197 -254 -197 -9 0 -37 -8 -63 -19 -26 -10 -67 -25 -92 -32 -25 -7 -60 -21 -78 -31 -18 -10 -41 -18 -50 -18 -16 0 -126 -81 -162 -119 -8 -9 -31 -29 -50 -45 -88 -73 -178 -160 -191 -184 -7 -15 -30 -46 -51 -69 -25 -28 -38 -52 -38 -71 0 -15 -4 -32 -9 -38 -5 -5 -19 -49 -30 -99 -12 -49 -31 -109 -41 -132 -21 -46 -25 -102 -11 -149 5 -16 14 -49 21 -74 25 -84 94 -206 160 -280 17 -19 40 -54 52 -77 47 -98 154 -186 285 -233 43 -15 106 -39 140 -51 51 -20 68 -22 100 -13 21 5 49 7 63 3 37 -10 192 -10 247 0 26 5 82 14 123 21 41 6 89 16 105 22 17 5 53 18 80 28 28 10 68 23 90 30 86 28 145 89 145 151 0 19 7 70 16 114 9 44 20 100 25 125 5 25 12 78 16 118 7 91 -3 111 -79 163 -72 49 -131 54 -169 13 -13 -14 -38 -32 -55 -40 -17 -8 -37 -27 -45 -42 -84 -165 -272 -312 -397 -312 -74 0 -108 20 -209 123 l-93 94 0 80 c0 77 1 82 37 129 70 92 145 155 236 197 32 15 59 27 62 27 2 0 32 13 67 29 35 16 83 38 108 48 49 22 168 100 211 140 15 14 50 35 78 48 157 73 273 200 321 350 7 22 25 67 40 100 15 33 31 78 35 100 4 22 11 60 16 85 38 189 37 348 -3 465 -41 119 -118 222 -238 318 -133 106 -249 156 -400 172 -41 4 -91 19 -137 41 -67 31 -121 43 -136 28z m245 -158 c175 -17 327 -98 463 -248 134 -149 170 -307 125 -551 -27 -147 -38 -186 -64 -227 -13 -19 -26 -53 -30 -74 -20 -106 -138 -244 -261 -306 -39 -19 -103 -60 -144 -93 -80 -63 -149 -101 -324 -176 -176 -75 -234 -118 -339 -249 l-58 -73 0 -104 c0 -70 5 -117 15 -142 9 -23 55 -77 114 -136 112 -110 147 -127 263 -127 155 0 315 105 438 288 24 35 54 71 69 79 14 9 35 25 47 35 20 17 21 17 62 -13 51 -37 51 -42 17 -208 -14 -67 -28 -149 -32 -182 -6 -59 -8 -63 -49 -89 -24 -15 -72 -33 -106 -40 -35 -7 -72 -21 -83 -30 -14 -12 -66 -24 -170 -39 -173 -24 -207 -25 -286 -9 -47 10 -63 9 -84 -2 -23 -12 -31 -10 -96 23 -38 20 -80 37 -93 37 -60 0 -207 114 -242 189 -9 19 -46 73 -82 120 -73 96 -113 175 -138 270 -15 60 -15 67 0 99 9 19 26 72 36 119 11 46 27 97 35 113 8 16 15 38 15 49 0 12 16 36 36 54 20 18 42 47 48 64 7 20 65 77 165 164 160 140 206 167 350 210 36 10 69 23 75 29 5 5 19 10 30 10 38 0 116 54 270 189 l154 133 12 115 c7 63 10 141 7 173 -7 85 -55 175 -138 259 -158 161 -297 170 -559 36 -113 -58 -171 -106 -190 -158 -6 -18 -18 -46 -27 -63 -8 -18 -18 -59 -22 -93 -8 -67 -26 -97 -84 -145 -36 -28 -38 -29 -78 -16 -38 13 -43 19 -85 109 -67 142 -69 154 -49 249 23 117 71 278 97 331 l23 46 75 6 c41 4 110 14 153 23 55 12 83 13 97 6 10 -5 39 -10 64 -10 46 0 337 38 344 45 2 2 35 -11 72 -29 49 -24 90 -35 142 -40z"/><path id="p2vorCCf6" d="M6535 6449 c-71 -3 -856 -7 -1743 -8 l-1613 -1 -24 -25 c-44 -43 -27 -136 37 -202 24 -25 46 -36 90 -44 33 -7 70 -22 85 -35 18 -16 41 -24 63 -24 20 0 46 -8 60 -17 27 -19 12 -18 637 -30 l401 -8 32 -40 c18 -22 43 -56 55 -75 13 -21 38 -42 61 -52 164 -67 219 -95 280 -145 38 -30 85 -63 104 -73 59 -31 201 -151 258 -219 48 -56 53 -67 47 -95 -14 -69 -24 -220 -25 -374 0 -115 -5 -181 -16 -227 -13 -51 -14 -73 -5 -115 15 -71 14 -170 -1 -170 -7 0 -40 -13 -74 -29 -34 -16 -76 -32 -95 -36 -109 -22 -412 -162 -515 -238 -108 -80 -268 -240 -384 -387 -70 -88 -189 -227 -256 -298 -65 -69 -72 -73 -129 -84 -129 -23 -257 -75 -382 -157 -34 -23 -67 -41 -72 -41 -13 0 -61 151 -61 191 0 23 6 32 28 41 77 33 132 115 132 197 0 29 7 44 35 69 20 19 38 49 43 70 5 20 15 60 21 87 7 28 15 84 18 125 5 66 3 78 -16 101 -32 41 -62 43 -139 11 -37 -16 -89 -37 -117 -47 -38 -14 -78 -46 -181 -147 -184 -180 -178 -165 -172 -448 7 -292 0 -424 -24 -428 -16 -3 -18 5 -18 55 0 51 -5 65 -43 123 -27 41 -56 72 -82 87 -29 16 -42 31 -50 60 -13 45 -66 88 -200 163 -98 54 -118 58 -153 34 -28 -19 -72 -105 -72 -139 0 -77 94 -359 158 -473 40 -71 55 -89 105 -120 200 -127 281 -185 361 -262 103 -97 184 -139 291 -147 l60 -5 90 63 c80 57 303 179 326 179 5 0 15 -15 22 -33 8 -17 21 -38 30 -46 10 -7 17 -18 17 -23 0 -22 53 -115 84 -148 25 -27 39 -58 61 -135 69 -252 196 -436 418 -610 43 -33 77 -65 77 -72 0 -21 -37 -24 -106 -8 -38 9 -81 13 -96 9 -42 -9 -123 13 -209 57 -81 41 -123 48 -167 25 -58 -31 -122 -119 -122 -169 0 -14 -7 -30 -15 -37 -8 -6 -24 -37 -35 -67 -20 -54 -20 -58 -4 -106 33 -99 151 -240 211 -252 15 -3 44 -11 65 -17 20 -6 50 -8 68 -6 20 3 47 -3 77 -19 26 -12 52 -23 59 -23 8 0 28 -9 46 -20 18 -11 40 -20 49 -20 36 0 129 -62 150 -100 30 -53 70 -80 134 -90 41 -7 68 -5 103 5 61 19 92 19 121 -1 12 -9 45 -24 72 -34 27 -10 61 -28 76 -39 16 -12 48 -37 73 -56 96 -73 127 -79 176 -30 20 20 24 34 24 79 0 60 13 76 65 76 19 0 50 21 107 72 221 201 273 351 234 674 -34 279 -36 291 -142 711 -70 277 -80 307 -136 404 -21 36 -38 77 -38 90 0 18 36 62 133 160 145 149 225 216 332 276 39 21 90 54 114 71 24 18 49 32 55 32 20 0 220 81 286 116 60 32 107 67 233 175 49 42 167 177 221 252 17 23 45 82 64 131 85 226 83 216 80 305 l-3 85 46 11 c68 18 165 81 240 156 63 63 68 72 103 175 41 125 46 200 21 323 -22 102 -58 174 -121 240 -30 30 -56 62 -59 71 -3 8 -20 22 -38 30 -39 18 -100 98 -116 151 -6 21 -15 69 -18 106 -7 73 -33 113 -73 113 -33 0 -107 -77 -141 -146 -28 -56 -31 -73 -32 -161 -2 -88 1 -104 25 -153 15 -30 58 -91 96 -136 38 -44 75 -96 81 -117 15 -46 0 -168 -29 -230 -27 -57 -77 -117 -99 -117 -9 0 -37 21 -61 46 -76 77 -228 170 -335 204 -58 18 -135 59 -135 71 0 21 122 175 213 269 106 109 119 138 97 213 -21 72 -78 169 -148 253 -37 44 -89 113 -117 153 -27 39 -71 101 -97 138 -27 36 -48 71 -48 77 1 6 11 29 24 51 l23 40 184 6 c101 4 202 10 224 13 207 32 232 41 269 89 20 26 26 45 26 86 0 96 -47 153 -122 149 -18 -1 -91 -5 -163 -9z m201 -93 c12 -25 14 -41 7 -62 -15 -46 -61 -66 -166 -72 -51 -2 -97 -8 -103 -13 -6 -5 -110 -9 -232 -9 l-221 -1 6 -44 c5 -38 2 -48 -21 -75 -30 -36 -32 -50 -11 -90 26 -49 171 -253 265 -372 100 -126 150 -211 150 -255 0 -22 -14 -43 -61 -88 -113 -111 -289 -347 -289 -387 0 -19 94 -68 186 -98 124 -41 279 -135 352 -215 25 -27 54 -48 80 -56 38 -11 44 -10 80 14 82 54 141 184 149 328 7 117 -6 152 -96 254 -94 107 -111 143 -111 234 0 84 18 132 70 191 l30 34 0 -50 c0 -59 30 -153 66 -207 13 -20 71 -83 129 -140 135 -133 156 -175 162 -332 4 -103 3 -115 -25 -193 -17 -46 -42 -98 -55 -116 -54 -69 -171 -149 -253 -170 -81 -21 -98 -44 -88 -116 12 -87 5 -146 -25 -213 -15 -34 -34 -80 -41 -102 -7 -22 -21 -57 -32 -78 -24 -48 -173 -231 -225 -278 -90 -79 -176 -144 -225 -171 -54 -30 -268 -118 -286 -118 -6 0 -40 -20 -76 -44 -35 -25 -83 -54 -106 -65 -85 -41 -206 -140 -345 -283 l-145 -149 0 -66 c0 -60 4 -73 45 -144 25 -44 50 -91 56 -106 10 -25 70 -255 114 -433 9 -36 25 -101 36 -145 24 -99 71 -431 76 -543 4 -70 0 -95 -23 -165 -48 -145 -164 -270 -319 -343 -52 -25 -97 -49 -100 -54 -3 -5 1 -31 10 -56 22 -64 8 -74 -48 -32 -117 85 -137 98 -163 104 -16 4 -48 18 -71 31 -38 22 -51 24 -115 19 -40 -3 -93 -8 -118 -11 -54 -8 -89 14 -121 76 -14 29 -33 46 -67 62 -26 12 -51 33 -57 45 -9 21 -15 23 -48 19 -33 -5 -40 -2 -60 25 -19 26 -27 29 -56 24 -24 -4 -42 0 -61 14 -20 14 -43 19 -81 19 -99 -2 -124 8 -182 70 -29 32 -66 82 -81 112 -29 55 -29 55 -11 92 10 21 26 42 36 48 14 7 19 21 19 51 0 44 31 95 76 124 23 16 27 15 93 -25 38 -22 78 -41 88 -41 10 0 40 -7 67 -15 32 -10 67 -13 101 -9 41 5 62 2 100 -15 60 -26 70 -26 108 1 22 16 50 24 94 26 59 4 63 6 63 28 0 17 -8 27 -25 34 -14 5 -44 27 -67 48 -24 21 -81 69 -128 106 -193 155 -313 338 -378 579 -25 91 -35 113 -66 143 -20 19 -49 63 -65 97 -15 34 -35 68 -44 76 -9 7 -17 22 -17 33 0 36 -31 88 -57 94 -18 5 -36 -2 -66 -24 -23 -16 -88 -52 -145 -80 -57 -28 -142 -78 -188 -112 l-85 -62 -43 11 c-84 21 -132 49 -203 119 -76 75 -223 183 -340 251 -86 49 -95 60 -161 193 -45 91 -61 141 -105 314 -11 45 -6 78 16 108 14 19 18 18 109 -36 132 -79 141 -87 142 -134 1 -37 4 -40 58 -66 44 -21 62 -36 77 -67 12 -22 25 -42 30 -45 5 -3 6 -34 4 -69 l-5 -64 108 -68 c60 -37 125 -79 145 -92 39 -26 99 -31 99 -9 0 7 -17 25 -38 39 -20 15 -56 46 -79 69 -40 41 -42 46 -44 108 -1 36 4 110 10 165 7 67 8 160 2 280 -10 220 -15 209 136 356 122 119 151 141 208 158 22 7 57 21 77 32 66 35 69 22 30 -159 -10 -45 -25 -90 -34 -98 -9 -9 -39 -19 -67 -22 -59 -5 -63 -17 -21 -57 36 -35 36 -40 6 -109 -27 -60 -48 -76 -99 -76 l-34 0 -7 -71 c-6 -63 -3 -84 25 -173 50 -161 48 -156 78 -156 16 0 78 32 154 79 145 90 229 124 348 142 108 17 81 -9 472 454 146 174 179 207 305 308 115 94 331 197 514 248 38 11 92 31 119 44 28 14 66 25 89 25 34 0 42 4 52 26 10 22 9 32 -9 63 -26 45 -28 128 -15 501 7 181 14 274 26 322 10 37 14 78 11 90 -23 75 -186 237 -328 326 -32 21 -83 57 -113 80 -60 48 -206 124 -269 141 -35 9 -48 21 -82 73 -22 35 -44 73 -47 84 -4 12 -17 25 -29 28 -12 3 -188 6 -392 6 -502 1 -696 20 -765 75 -8 7 -46 17 -84 23 -76 12 -111 36 -121 83 -4 16 -7 31 -8 34 -1 3 725 7 1613 9 1363 4 1739 9 1883 24 11 1 23 -10 33 -32z"/><path id="p1GIo0Bj2g" d="M5365 6108 c-71 -4 -134 -13 -139 -18 -6 -6 -5 -19 2 -36 8 -17 10 -48 6 -90 -5 -47 -3 -68 7 -80 23 -28 193 -154 317 -235 65 -42 133 -90 152 -107 34 -30 34 -31 31 -103 -4 -108 9 -238 26 -255 30 -29 58 -16 156 76 52 50 105 106 117 126 57 92 -13 281 -165 444 -46 49 -96 106 -111 125 -38 50 -114 103 -172 120 -27 8 -55 22 -62 30 -7 8 -18 14 -24 14 -6 -1 -69 -6 -141 -11z m131 -77 c5 -5 34 -17 64 -26 46 -15 70 -34 150 -114 160 -160 188 -198 255 -347 20 -45 26 -70 21 -90 -8 -30 -132 -164 -152 -164 -19 0 -28 62 -20 145 11 121 -10 149 -194 267 -52 34 -144 97 -203 142 l-108 80 3 45 c2 37 8 48 28 58 29 14 141 17 156 4z"/><path id="p10ReeBlI" d="M4548 1083 c-63 -43 -40 -83 47 -83 26 0 39 6 52 26 15 24 15 29 2 53 -20 35 -55 36 -101 4z"/></g></g><g id="l4sD2VaPP05skWqFmUiatxL" fill="#978152" style="transform:none"><g style="transform:none"><path id="pWoPGdA0b" d="M301 9729 c-10 -11 -21 -39 -23 -62 -3 -23 -8 -50 -12 -59 -9 -19 46 -78 188 -205 l79 -70 18 -109 c29 -178 42 -367 35 -519 -9 -192 -11 -211 -26 -280 -15 -68 -8 -389 11 -560 7 -55 12 -188 13 -295 1 -193 1 -196 -26 -245 -30 -57 -92 -119 -159 -158 -53 -31 -162 -67 -201 -67 -38 0 -88 -53 -88 -92 0 -36 99 -136 167 -169 49 -24 77 -26 253 -21 90 3 110 3 220 0 220 -6 336 -1 362 16 22 14 33 15 65 7 48 -14 189 -14 273 -1 69 11 182 60 254 109 25 17 56 31 70 31 18 0 48 21 98 68 40 37 102 92 138 122 75 63 74 61 119 160 44 96 43 142 -2 391 l-34 187 -147 142 c-89 87 -146 149 -144 159 2 9 26 25 53 36 28 11 113 54 190 95 101 54 156 90 197 131 56 55 56 56 61 125 5 81 27 181 55 244 29 67 24 220 -10 315 -38 107 -55 135 -157 254 -93 108 -96 110 -170 136 -42 15 -101 34 -131 42 -30 8 -79 32 -110 53 -31 21 -75 44 -99 51 -39 12 -46 11 -86 -11 -41 -22 -46 -23 -87 -10 -36 12 -330 23 -493 19 -16 0 -118 -3 -225 -5 -210 -6 -264 1 -359 42 -66 30 -104 30 -130 3z m999 -402 c25 -2 83 -18 130 -36 89 -36 142 -42 236 -27 48 8 53 7 87 -24 20 -17 51 -62 69 -98 17 -37 37 -74 44 -82 11 -13 9 -40 -11 -150 -41 -229 -51 -252 -134 -310 -56 -40 -105 -91 -129 -137 -28 -51 -169 -114 -224 -100 -12 3 -37 -1 -57 -10 -20 -8 -75 -17 -123 -20 l-87 -6 -20 34 c-35 57 -43 99 -46 236 -1 72 -7 137 -11 145 -5 7 -10 38 -10 68 -1 30 -9 82 -17 115 -11 40 -15 92 -13 153 3 107 3 107 132 207 60 47 73 53 104 49 19 -3 55 -6 80 -7z m60 -1224 c19 -8 56 -21 81 -29 61 -18 92 -44 136 -112 20 -32 51 -74 69 -96 18 -21 42 -59 54 -84 l21 -45 -24 -56 c-14 -31 -31 -83 -37 -116 -29 -144 -63 -196 -181 -276 -34 -23 -80 -58 -101 -77 l-40 -36 -96 23 c-160 38 -153 35 -194 101 -39 61 -46 98 -28 145 7 18 6 63 -2 143 -16 148 -15 212 4 287 8 33 21 89 27 125 7 36 18 71 24 79 40 48 200 61 287 24z"/><path id="pn8WRft0D" d="M8451 9703 c-34 -25 -457 -30 -483 -6 -15 13 -39 15 -165 8 -82 -4 -153 -11 -160 -17 -15 -12 -43 -95 -43 -127 0 -111 73 -180 189 -181 39 0 49 -5 87 -45 31 -32 49 -62 63 -111 20 -63 21 -91 21 -518 0 -427 -8 -629 -30 -791 -11 -79 -11 -62 -7 -325 2 -138 0 -202 -9 -220 -18 -37 -151 -162 -219 -205 -33 -21 -89 -49 -125 -61 -65 -23 -65 -23 -68 -65 -4 -53 19 -79 108 -124 111 -56 196 -70 430 -70 113 0 286 2 385 5 171 5 184 4 258 -20 l78 -24 55 28 55 29 75 -17 c54 -11 124 -16 254 -16 l178 0 36 42 c20 22 43 60 52 83 14 39 14 49 -1 131 -9 49 -22 127 -29 173 -11 66 -19 88 -40 110 -22 21 -28 24 -36 11 -7 -12 -12 -11 -30 5 -14 13 -38 20 -66 21 -44 2 -47 0 -140 -96 -103 -107 -154 -137 -247 -147 -35 -3 -66 -15 -94 -34 -32 -23 -52 -29 -93 -29 -29 0 -64 6 -78 14 -15 8 -55 27 -89 42 -54 23 -65 32 -85 73 -21 43 -22 61 -24 241 0 123 -5 205 -12 223 -11 27 -10 136 2 155 3 5 0 25 -6 45 -9 29 -8 40 5 60 14 21 14 26 1 39 -20 19 -10 40 29 63 37 23 45 24 235 31 l142 6 33 -34 c17 -18 67 -79 110 -136 48 -64 88 -107 105 -112 15 -6 35 -15 44 -20 38 -22 67 -12 94 32 54 85 54 80 44 409 l-8 304 -37 55 c-56 84 -52 81 -91 63 -30 -15 -34 -21 -34 -56 0 -60 -26 -105 -64 -112 -17 -3 -93 -16 -168 -30 -75 -13 -177 -27 -225 -31 l-88 -6 -54 48 c-65 60 -101 119 -101 167 0 24 -6 40 -17 47 -16 9 -17 11 -2 20 12 7 18 33 23 100 4 50 14 132 22 183 8 50 19 130 25 177 l11 85 79 76 c88 86 126 107 255 140 87 22 97 22 185 10 52 -7 112 -21 134 -31 22 -10 67 -29 100 -41 91 -33 101 -44 245 -278 65 -104 128 -171 162 -171 10 0 30 18 45 42 27 40 28 48 28 157 0 100 -5 132 -34 236 -18 66 -45 138 -59 160 -15 22 -31 49 -37 60 -6 11 -23 26 -37 33 -15 7 -30 21 -33 32 -9 27 -50 32 -211 26 -76 -3 -167 -5 -201 -5 -35 0 -90 -7 -124 -15 -95 -25 -221 -21 -320 10 -114 35 -130 36 -158 17z"/><path id="pc9NuOGGK" d="M3373 9691 c-36 -17 -43 -17 -54 -5 -15 18 -92 18 -127 0 -21 -11 -64 -14 -172 -12 l-144 2 -35 -30 c-36 -33 -61 -80 -61 -119 0 -30 73 -115 105 -123 13 -3 33 -17 46 -30 18 -19 29 -23 54 -18 30 5 32 4 57 -53 14 -32 47 -125 73 -208 54 -171 63 -255 36 -345 -13 -46 -16 -112 -16 -411 0 -326 2 -359 18 -376 23 -26 22 -56 -4 -79 -16 -14 -19 -25 -14 -49 10 -39 10 -121 2 -395 l-6 -225 -45 -42 c-43 -41 -47 -43 -109 -43 -83 0 -99 -12 -104 -81 -3 -40 1 -66 16 -99 19 -43 27 -49 143 -108 80 -40 136 -62 158 -62 22 0 69 17 128 47 103 53 82 50 402 43 155 -3 253 13 340 57 104 53 141 151 96 251 -21 46 -19 45 -94 42 -44 -2 -60 3 -101 29 -32 21 -71 35 -112 42 -58 8 -68 14 -106 54 -23 25 -52 71 -65 103 -21 51 -23 73 -22 217 0 132 6 198 34 375 43 271 46 475 12 751 -14 109 -22 231 -22 320 l0 144 88 57 c169 109 239 132 412 132 102 0 122 -3 178 -27 81 -34 176 -101 241 -173 65 -71 81 -101 95 -183 20 -118 127 -293 196 -321 51 -21 75 -3 87 67 6 32 23 112 38 178 22 97 26 137 22 206 -3 60 0 96 9 119 19 43 18 119 -2 166 -37 92 -69 146 -88 154 -12 4 -45 17 -74 28 -50 19 -61 20 -166 10 -99 -10 -125 -9 -217 7 -142 26 -299 29 -514 11 -237 -21 -334 -21 -363 0 -15 10 -53 17 -115 20 -77 4 -99 2 -134 -15z"/><path id="p13ZO0Mf3j" d="M6260 9690 c-19 -5 -99 -17 -176 -26 -118 -15 -148 -16 -180 -5 -33 10 -54 9 -142 -8 -57 -12 -126 -21 -153 -21 -40 0 -51 -4 -64 -24 -40 -61 -117 -342 -119 -436 -1 -58 4 -76 49 -173 43 -94 54 -111 84 -123 51 -21 74 -17 119 22 53 45 68 74 75 144 3 30 12 69 20 85 9 17 21 44 27 62 19 52 77 100 190 158 127 64 243 99 311 93 152 -15 347 -215 366 -377 3 -27 0 -101 -7 -164 l-12 -115 -154 -133 c-154 -135 -232 -189 -270 -189 -11 0 -25 -5 -30 -10 -6 -6 -39 -19 -75 -29 -144 -43 -190 -70 -350 -210 -100 -87 -158 -144 -165 -164 -6 -17 -28 -46 -48 -64 -20 -18 -36 -43 -36 -54 0 -11 -5 -30 -12 -42 -7 -12 -24 -67 -39 -122 -14 -55 -32 -114 -39 -131 -11 -27 -11 -42 3 -100 25 -98 64 -177 139 -275 36 -47 73 -101 82 -120 35 -75 182 -189 242 -189 13 0 53 -16 90 -35 70 -37 93 -42 123 -23 14 8 29 8 64 0 66 -17 132 -15 302 9 104 15 156 27 170 39 11 9 48 23 83 30 34 7 82 25 106 40 41 26 43 30 49 88 4 33 18 117 32 186 35 166 32 189 -23 229 -30 22 -47 28 -56 22 -7 -6 -31 -22 -53 -37 -22 -14 -59 -55 -83 -90 -151 -224 -353 -328 -533 -273 -39 12 -68 34 -148 112 -59 59 -105 113 -114 136 -10 24 -15 71 -15 132 l0 94 58 73 c105 131 163 174 339 249 175 75 244 113 324 176 41 33 105 74 144 93 123 62 241 200 261 306 4 21 17 55 30 74 59 91 101 397 74 541 -30 162 -188 350 -371 440 -80 40 -137 56 -227 65 -52 5 -93 16 -143 40 -39 19 -74 34 -77 33 -4 -1 -23 -5 -42 -9z"/><path id="pDqcT7OPU" d="M6550 6387 c-69 -4 -851 -10 -1739 -13 -888 -2 -1616 -6 -1618 -8 -3 -2 1 -22 8 -45 18 -60 45 -80 125 -93 38 -6 76 -16 84 -23 69 -55 263 -74 765 -75 204 0 380 -3 392 -6 12 -3 25 -16 29 -28 3 -11 25 -49 47 -84 34 -52 47 -64 82 -73 63 -17 209 -93 269 -141 30 -23 81 -59 113 -80 137 -86 300 -246 326 -321 4 -10 0 -43 -9 -75 -16 -61 -37 -477 -34 -692 1 -95 5 -121 21 -147 29 -46 13 -73 -42 -73 -22 0 -61 -11 -88 -25 -27 -13 -81 -33 -119 -44 -183 -51 -399 -154 -514 -248 -126 -101 -159 -134 -305 -308 -246 -291 -288 -339 -338 -390 -49 -49 -53 -51 -134 -64 -119 -18 -203 -52 -348 -142 -70 -43 -134 -79 -144 -79 -18 0 -21 8 -67 155 -26 84 -30 110 -25 163 l6 62 34 0 c51 0 72 16 99 76 31 71 30 92 -7 130 l-30 31 51 5 c28 3 59 13 68 22 16 16 47 137 58 233 8 66 -9 77 -70 45 -23 -11 -59 -26 -81 -33 -57 -17 -86 -39 -208 -158 -152 -148 -147 -137 -137 -362 6 -125 5 -214 -2 -279 -6 -52 -10 -129 -9 -170 l2 -75 52 -50 c29 -28 66 -60 82 -73 30 -21 30 -21 6 -22 -14 0 -41 11 -60 23 -20 13 -85 55 -145 92 l-108 68 6 63 c4 39 3 65 -4 69 -6 3 -19 24 -31 46 -15 31 -33 46 -77 67 -54 26 -57 29 -57 64 0 21 -7 44 -15 52 -27 26 -214 136 -232 136 -23 0 -48 -49 -48 -93 0 -19 9 -63 19 -98 10 -35 24 -87 31 -115 12 -54 109 -255 138 -287 9 -11 48 -37 87 -59 115 -67 261 -175 340 -252 77 -75 138 -108 225 -122 35 -6 45 -1 123 55 47 34 132 85 189 113 57 28 121 64 144 80 24 17 47 26 56 23 19 -8 48 -64 48 -93 0 -11 8 -26 17 -33 9 -8 29 -42 44 -76 16 -34 45 -78 65 -97 31 -30 41 -52 66 -143 65 -241 185 -424 378 -579 47 -37 104 -85 128 -106 23 -21 53 -43 67 -48 47 -18 30 -37 -38 -42 -45 -3 -72 -10 -95 -27 l-33 -23 -51 22 c-40 17 -65 21 -107 17 -33 -2 -75 1 -101 9 -25 8 -53 14 -63 14 -10 0 -49 18 -86 40 -37 22 -76 40 -86 40 -10 0 -38 -20 -62 -45 -36 -38 -43 -52 -43 -86 0 -32 -7 -47 -30 -70 -44 -45 -48 -87 -13 -150 15 -29 52 -79 81 -110 56 -61 77 -70 182 -73 35 0 66 -8 84 -19 20 -13 38 -17 60 -13 28 5 35 2 55 -25 20 -27 27 -30 59 -24 32 5 38 3 47 -17 6 -13 31 -33 57 -45 34 -16 53 -33 67 -62 11 -21 33 -49 48 -61 24 -18 36 -21 83 -16 171 19 178 19 223 -7 23 -13 55 -27 71 -31 26 -6 46 -19 162 -103 72 -54 98 -38 72 42 -9 24 -13 47 -10 50 3 3 48 25 99 50 153 72 269 198 317 342 24 72 27 94 23 175 -5 118 -50 448 -76 553 -11 44 -27 109 -36 145 -44 178 -104 408 -114 433 -6 15 -31 62 -56 106 -39 67 -45 86 -45 134 l0 56 145 149 c139 143 260 242 345 283 23 11 71 40 106 65 36 24 70 44 76 44 18 0 232 88 286 118 49 27 135 92 225 171 57 51 205 235 227 284 91 199 115 294 99 384 -13 70 3 98 63 113 75 20 82 22 133 56 121 80 155 120 197 236 28 79 29 89 25 203 -5 168 -24 206 -162 342 -58 57 -116 120 -129 140 -37 55 -66 148 -66 210 0 29 -4 53 -8 53 -13 0 -82 -88 -98 -125 -8 -21 -14 -68 -14 -118 0 -100 15 -133 111 -242 88 -100 103 -138 96 -245 -9 -134 -70 -265 -148 -317 -36 -23 -38 -24 -75 -8 -20 8 -52 33 -70 53 -61 72 -226 172 -348 212 -62 20 -186 79 -186 88 0 11 111 173 158 232 20 25 74 84 119 132 78 81 82 88 77 120 -11 55 -60 137 -154 256 -95 120 -240 323 -266 373 -14 28 -14 32 3 56 36 51 41 64 33 98 l-7 33 220 1 c121 1 226 5 231 10 6 5 52 11 103 13 113 7 154 26 167 81 14 54 -13 108 -51 105 -16 -1 -84 -6 -153 -11z m-965 -322 c56 -17 132 -71 169 -120 15 -19 65 -76 111 -125 148 -159 218 -339 166 -424 -26 -42 -209 -216 -227 -216 -30 0 -42 31 -49 126 -4 53 -5 121 -1 151 6 54 6 56 -32 91 -21 21 -90 70 -153 110 -108 69 -188 128 -287 209 l-44 35 7 68 c4 44 3 75 -5 89 -15 28 -10 30 140 39 99 6 128 5 142 -6 9 -7 37 -20 63 -27z m-949 -4990 c12 -18 11 -24 -2 -43 -16 -24 -47 -28 -88 -12 -35 13 -33 23 12 53 43 30 59 30 78 2z"/></g></g></svg>