<svg class="img-fluid" id="outputsvg" xmlns="http://www.w3.org/2000/svg" style="transform: matrix(1.44805, 0, 0, 1.44805, -115.527, -157.627); transform-origin: 50% 50%; cursor: move; max-height: 368.98px; transition: transform 200ms ease-in-out 0s;" width="1000" height="1000" viewBox="0 0 10000 10000"><g id="l7j4X3ZsBJsNajdkeoAhJzB" fill="rgb(148,126,79)" style="transform: none;"><g style="transform: none;"><path id="ptoZ67clZ" d="M1602 9608 c-5 -7 -13 -38 -17 -68 l-8 -55 92 -85 91 -85 15 -90 c26 -157 29 -305 11 -496 -17 -162 -17 -186 -2 -342 22 -230 21 -370 -3 -422 -32 -70 -120 -134 -218 -155 -100 -23 -120 -80 -50 -147 78 -75 77 -75 378 -75 148 0 274 4 280 7 6 4 70 8 142 9 115 1 138 4 177 23 112 56 185 104 271 179 83 73 97 89 118 144 28 73 26 146 -7 310 l-20 95 -96 94 c-53 52 -96 98 -96 103 0 4 16 14 35 23 72 29 231 124 260 154 22 24 30 42 32 79 2 50 26 151 43 182 6 11 11 54 12 97 2 113 -31 197 -121 299 -65 73 -73 79 -147 104 -44 15 -110 43 -147 64 -77 40 -90 42 -131 21 -23 -12 -37 -13 -68 -4 -25 6 -150 9 -341 7 -294 -3 -303 -2 -355 20 -58 24 -114 29 -130 10z m798 -328 c45 -18 67 -21 118 -16 57 6 64 5 86 -17 36 -36 76 -121 76 -161 0 -50 -28 -177 -45 -203 -8 -12 -39 -41 -68 -63 -30 -22 -59 -51 -65 -64 -25 -56 -81 -81 -239 -107 -66 -11 -75 -10 -93 6 -34 31 -53 109 -47 191 3 41 2 76 -2 79 -10 6 -22 115 -24 215 l-2 74 67 51 66 52 58 -8 c33 -4 84 -17 114 -29z m-48 -816 c53 -18 85 -35 99 -53 130 -170 124 -157 99 -230 -11 -33 -20 -69 -20 -79 0 -43 -50 -117 -102 -152 -29 -19 -66 -47 -83 -62 l-31 -26 -74 17 c-68 16 -78 22 -102 57 -25 35 -27 45 -22 92 4 29 1 89 -6 133 -11 71 -11 90 5 158 30 130 37 145 75 158 52 18 75 16 162 -13z"></path><path id="pSMKBgg7V" d="M6928 9593 l-66 -4 -16 -40 c-20 -49 -20 -89 -2 -133 18 -44 49 -64 108 -72 56 -8 99 -48 118 -111 22 -70 24 -428 4 -673 -11 -137 -17 -292 -15 -395 l3 -170 -36 -42 c-44 -50 -172 -138 -216 -148 -57 -13 -65 -62 -17 -109 76 -76 245 -103 527 -84 158 10 180 10 224 -5 62 -21 120 -22 150 -2 19 13 32 14 67 6 24 -6 103 -11 176 -11 131 0 132 0 158 28 45 48 50 85 25 208 -12 60 -23 119 -26 131 -5 25 -54 43 -117 43 -34 0 -44 -7 -93 -59 -59 -64 -124 -101 -178 -101 -18 0 -45 -9 -59 -20 -30 -24 -72 -26 -113 -6 -16 8 -41 19 -56 25 -49 18 -63 54 -64 166 -1 55 -4 168 -7 252 -6 175 -6 175 83 190 64 11 188 2 198 -13 4 -6 34 -46 66 -88 44 -57 71 -82 104 -96 24 -11 49 -20 53 -20 5 0 23 21 40 48 l31 47 -7 229 -6 229 -30 44 c-17 24 -38 43 -47 43 -29 -1 -52 -26 -52 -57 0 -53 -18 -64 -131 -83 -57 -10 -131 -21 -165 -25 l-61 -7 -46 51 c-66 74 -67 90 -30 366 12 93 21 127 39 151 39 53 114 100 194 123 66 18 83 19 135 10 33 -6 94 -27 135 -47 l75 -37 90 -135 c87 -130 92 -135 125 -135 32 0 37 4 58 47 22 44 23 52 13 133 -20 161 -59 257 -131 325 l-32 30 -166 -5 c-92 -3 -183 -9 -202 -15 -50 -14 -127 -12 -190 5 -92 25 -119 28 -135 15 -19 -16 -283 -17 -313 -1 -11 6 -40 10 -64 9 -24 -1 -73 -3 -110 -5z"></path><path id="pGVy1YLGm" d="M3664 9579 c-5 -8 -40 -10 -111 -7 -100 5 -107 4 -133 -19 -16 -13 -34 -40 -41 -60 -10 -31 -9 -41 6 -70 20 -36 102 -93 135 -93 25 0 39 -28 85 -169 40 -123 40 -106 16 -341 -10 -103 -1 -425 13 -448 3 -6 -2 -24 -11 -41 -14 -24 -16 -34 -7 -49 8 -12 10 -77 7 -208 l-4 -189 -31 -32 c-28 -29 -38 -33 -84 -33 -57 0 -64 -8 -64 -80 0 -56 29 -91 112 -132 94 -47 133 -48 221 -8 64 30 68 31 243 33 170 3 182 4 236 29 72 33 98 72 98 144 0 60 -23 89 -62 79 -16 -4 -46 4 -88 24 -36 17 -74 31 -86 31 -23 0 -64 40 -87 85 -38 75 -36 177 7 490 21 150 20 259 -6 462 -16 131 -19 186 -12 230 9 58 9 58 79 105 160 107 327 104 476 -8 60 -46 106 -113 114 -163 8 -55 73 -177 111 -211 55 -48 95 -39 109 25 3 17 15 64 25 105 10 43 21 135 25 218 6 140 6 143 -21 197 -30 62 -31 63 -97 87 -40 14 -58 15 -115 6 -54 -8 -86 -7 -170 7 -108 19 -191 17 -424 -6 -93 -10 -113 -9 -148 5 -45 18 -161 22 -190 6 -13 -7 -21 -7 -25 0 -8 14 -92 13 -101 -1z"></path><path id="pVOZ3U5xY" d="M5760 9569 c-25 -5 -94 -11 -155 -13 -60 -2 -141 -7 -178 -11 -66 -8 -69 -9 -87 -46 -29 -57 -70 -224 -70 -286 0 -38 8 -75 27 -117 33 -77 50 -95 95 -102 50 -9 103 38 112 98 11 68 37 130 70 166 39 42 168 107 242 122 74 15 129 -5 201 -73 91 -86 113 -154 97 -294 -7 -51 -9 -54 -102 -135 -135 -117 -148 -126 -232 -152 -41 -14 -97 -34 -124 -45 -46 -20 -252 -188 -270 -220 -5 -9 -19 -27 -31 -41 -12 -14 -25 -36 -28 -50 -15 -64 -46 -168 -57 -192 -25 -55 20 -190 94 -283 18 -22 45 -62 60 -88 33 -57 104 -112 166 -127 25 -6 55 -18 68 -26 52 -34 392 -21 462 16 12 6 45 18 73 27 64 18 97 47 97 84 0 16 9 67 20 114 28 121 27 160 -7 190 -16 13 -36 25 -46 25 -27 0 -82 -40 -108 -79 -71 -106 -183 -193 -265 -206 -72 -12 -113 7 -196 93 -72 73 -76 81 -83 133 -9 72 6 103 94 189 58 57 82 72 200 124 78 34 160 79 195 106 34 26 78 55 98 64 79 38 168 136 184 203 4 15 15 44 24 63 32 64 52 195 48 309 -3 98 -6 111 -38 170 -74 138 -199 229 -353 255 -48 9 -100 22 -117 31 -32 16 -109 18 -180 4z"></path><path id="pdP2s3DS3" d="M7105 7421 c-36 -14 -223 -16 -2030 -19 -1094 -1 -2064 -2 -2154 -2 l-164 0 6 -36 c8 -49 37 -104 67 -126 14 -10 61 -24 104 -30 70 -11 82 -16 95 -40 12 -20 24 -28 44 -28 15 0 49 -10 75 -23 46 -23 54 -23 357 -25 171 -1 463 -4 650 -8 359 -7 375 -9 375 -54 0 -10 16 -39 35 -66 20 -27 46 -65 58 -84 18 -28 32 -37 73 -46 79 -17 232 -97 313 -164 41 -33 99 -75 130 -92 156 -89 366 -279 416 -377 27 -54 27 -54 11 -115 -28 -107 -36 -212 -36 -451 0 -189 -3 -240 -16 -270 -13 -31 -14 -61 -8 -173 6 -114 10 -141 31 -179 30 -57 20 -73 -46 -73 -29 0 -66 -10 -101 -27 -30 -14 -104 -41 -165 -59 -139 -41 -206 -68 -375 -150 -252 -124 -417 -273 -770 -700 -63 -76 -140 -166 -170 -200 -30 -34 -81 -93 -113 -132 -33 -39 -71 -75 -85 -80 -15 -6 -77 -19 -138 -31 -147 -27 -252 -69 -357 -140 -46 -32 -114 -75 -150 -95 l-66 -37 -15 23 c-8 13 -26 55 -40 93 -13 39 -36 102 -49 140 -22 62 -24 76 -15 125 17 94 22 100 71 100 56 0 83 21 113 87 30 68 31 131 4 166 l-20 25 51 7 c84 12 98 31 119 168 10 64 22 126 25 137 4 12 4 43 0 71 -6 45 -9 49 -33 49 -15 0 -45 -10 -67 -23 -22 -12 -69 -33 -105 -46 -85 -30 -110 -49 -267 -204 -182 -179 -175 -159 -162 -471 6 -169 6 -279 -1 -348 -5 -55 -10 -147 -10 -204 0 -102 1 -104 31 -139 40 -46 198 -165 218 -165 11 0 12 -3 4 -11 -16 -16 -133 52 -358 209 l-100 70 3 70 c3 64 0 75 -34 136 -32 59 -43 70 -95 96 -32 17 -66 30 -75 30 -13 0 -15 7 -9 40 4 21 4 48 0 59 -7 24 -125 104 -238 162 -84 43 -86 43 -106 25 -12 -11 -28 -43 -37 -71 l-17 -52 37 -121 c20 -66 36 -130 36 -141 0 -29 50 -151 110 -270 51 -102 76 -129 150 -166 53 -26 235 -150 310 -210 36 -29 99 -88 140 -130 82 -84 112 -102 214 -134 104 -32 123 -29 213 34 127 88 212 145 219 145 17 0 185 86 225 116 26 19 54 32 62 28 19 -7 45 -59 52 -105 3 -20 17 -46 31 -60 14 -13 39 -53 55 -89 18 -39 51 -87 83 -120 56 -58 59 -64 108 -250 31 -120 85 -237 164 -355 79 -118 158 -201 296 -311 47 -38 115 -93 151 -121 36 -29 77 -57 92 -63 47 -18 24 -35 -41 -32 -50 3 -68 -1 -116 -26 l-57 -30 -48 18 c-68 26 -136 34 -175 21 -25 -8 -44 -7 -82 4 -27 8 -62 15 -77 15 -18 0 -58 20 -108 54 -44 30 -97 58 -117 62 -33 6 -39 3 -89 -46 -52 -52 -86 -124 -70 -149 3 -6 -10 -30 -30 -53 -73 -86 -70 -140 14 -268 66 -102 124 -155 181 -168 25 -6 60 -16 78 -23 28 -12 36 -11 67 5 l34 19 41 -33 c35 -28 47 -32 80 -27 36 5 42 2 66 -30 26 -34 29 -35 74 -30 42 5 49 3 60 -18 7 -13 29 -31 49 -40 76 -33 87 -41 108 -85 51 -106 128 -133 262 -90 80 25 126 18 194 -31 22 -16 57 -32 78 -35 22 -4 55 -20 76 -39 21 -18 52 -39 69 -48 17 -9 52 -32 78 -52 50 -38 76 -44 96 -20 12 15 8 67 -11 134 -2 9 10 22 31 32 19 10 76 37 125 61 76 36 105 58 185 138 115 114 145 158 178 253 33 94 42 307 19 420 -9 39 -18 108 -22 152 -3 44 -10 100 -14 125 -25 125 -35 171 -51 235 -10 39 -28 120 -39 180 -33 180 -126 526 -159 591 -17 32 -51 95 -76 139 -40 69 -46 88 -46 137 l0 57 173 177 c189 194 347 327 447 377 35 17 87 49 114 69 51 38 83 53 291 134 256 99 422 225 652 498 85 101 95 117 124 204 17 52 50 134 72 181 47 103 57 177 33 266 -13 53 -14 62 -1 82 19 28 52 45 129 67 32 10 80 32 107 49 26 18 69 45 94 61 71 44 121 119 166 248 36 105 39 121 39 224 0 142 -11 201 -56 292 -30 62 -59 96 -173 210 -83 84 -147 157 -163 188 -36 67 -58 154 -58 231 0 60 -1 63 -24 63 -31 0 -128 -114 -145 -169 -6 -21 -11 -90 -11 -152 0 -108 2 -117 29 -164 17 -27 70 -94 119 -148 104 -112 122 -152 122 -264 0 -161 -92 -359 -195 -423 -31 -19 -39 -20 -72 -9 -24 7 -58 34 -91 70 -50 54 -174 145 -250 184 -19 9 -84 36 -145 60 -118 46 -267 112 -267 118 0 9 107 167 164 242 33 44 106 128 163 187 l103 107 0 51 c0 82 -56 200 -149 312 -165 201 -381 505 -381 538 0 10 7 23 16 31 30 25 46 71 41 115 l-4 43 276 5 c308 4 485 18 548 42 63 23 83 54 83 129 0 84 -23 116 -83 114 -23 -1 -60 -9 -82 -18z m-1405 -386 c13 -14 42 -30 64 -36 85 -22 166 -84 307 -231 172 -182 228 -265 280 -417 26 -75 24 -107 -12 -169 -36 -63 -160 -197 -204 -219 -16 -9 -46 -29 -65 -44 -30 -25 -35 -27 -43 -12 -17 29 -31 156 -31 288 -1 104 -4 136 -18 156 -14 23 -197 151 -313 220 -22 13 -57 39 -78 58 -21 19 -77 62 -124 95 -48 34 -95 73 -106 88 -18 24 -18 31 -7 78 7 29 10 72 6 96 l-6 44 33 0 c17 1 57 7 87 15 30 7 89 14 131 14 68 1 78 -1 99 -24z"></path></g></g><g id="lh7htSEtzNc05zPPaBqErd" fill="rgb(13,11,7)" style="transform: none;"><g style="transform: none;"><path id="ppPqLLDjs" d="M1603 9687 c-50 -18 -70 -46 -87 -117 -14 -61 -14 -67 5 -106 10 -23 54 -72 98 -112 90 -83 84 -63 101 -302 10 -128 8 -197 -7 -305 -12 -82 -14 -281 -4 -365 6 -52 12 -161 14 -242 l2 -147 -33 -34 c-35 -36 -98 -68 -172 -87 -75 -19 -120 -69 -120 -132 0 -52 20 -87 75 -136 93 -82 101 -83 421 -83 156 0 291 4 300 9 9 5 31 5 54 -2 28 -7 62 -6 122 3 98 16 158 37 228 80 28 17 58 31 68 31 9 0 40 22 67 48 28 26 75 68 105 92 62 51 68 58 93 120 41 102 49 139 38 193 -6 29 -15 81 -21 117 -31 183 -29 178 -105 251 -38 37 -67 70 -65 72 3 2 46 27 97 56 95 53 158 108 174 148 4 12 13 53 19 90 12 78 30 144 42 157 4 6 8 46 8 90 0 82 -19 155 -63 245 -36 73 -175 221 -207 221 -10 0 -39 9 -65 20 -26 11 -53 20 -60 20 -8 0 -33 13 -57 29 -65 44 -118 57 -171 42 -30 -9 -60 -10 -98 -4 -30 5 -121 7 -204 5 -337 -11 -394 -8 -468 21 -75 30 -79 30 -124 14z m119 -99 c52 -22 61 -23 353 -20 201 2 315 -1 347 -9 41 -9 54 -9 85 6 l36 17 71 -37 c39 -21 106 -50 150 -65 74 -25 82 -31 147 -104 86 -99 122 -183 120 -287 0 -39 -5 -79 -11 -89 -18 -33 -42 -134 -44 -182 -2 -38 -8 -55 -32 -79 -27 -28 -165 -111 -258 -155 -22 -11 -41 -24 -43 -29 -2 -6 42 -56 98 -110 l101 -100 19 -94 c34 -165 35 -220 8 -291 -21 -55 -35 -71 -118 -144 -86 -75 -159 -123 -271 -179 -39 -19 -61 -22 -175 -22 -72 -1 -135 -4 -140 -7 -13 -8 -110 -11 -315 -10 -217 0 -218 0 -253 18 -43 22 -117 94 -117 114 0 27 42 58 93 70 98 21 186 85 218 155 24 52 25 212 3 437 -14 150 -14 176 2 328 19 184 15 363 -10 515 l-16 90 -90 85 -91 85 7 45 c12 78 35 86 126 48z"></path><path id="pdhRqfEGS" d="M2153 9276 l-68 -52 1 -84 c1 -88 12 -194 21 -220 3 -8 5 -48 4 -87 -3 -81 18 -160 49 -188 15 -14 30 -16 62 -12 24 3 73 10 109 15 82 12 133 35 162 75 21 29 52 59 124 122 40 35 61 98 70 211 5 67 4 75 -28 134 -43 82 -63 94 -137 85 -48 -5 -69 -2 -122 18 -36 13 -91 27 -122 30 -58 6 -58 5 -125 -47z m193 -52 c67 -28 145 -43 172 -33 35 13 49 6 67 -37 17 -41 19 -102 6 -154 -5 -19 -12 -47 -15 -61 -3 -16 -22 -37 -46 -53 -22 -15 -56 -48 -75 -75 -37 -52 -71 -71 -120 -69 -17 0 -47 -5 -66 -12 -62 -22 -67 -15 -72 107 -3 59 -11 135 -18 168 -18 86 -14 174 8 195 48 44 95 51 159 24z"></path><path id="p1AYQUti9t" d="M2180 8487 c-38 -13 -45 -28 -76 -160 -16 -69 -16 -89 -5 -165 6 -48 9 -112 6 -142 -5 -49 -3 -59 22 -94 26 -36 35 -41 111 -58 l82 -20 33 29 c18 15 56 44 85 63 52 35 102 109 102 152 0 10 9 46 21 80 11 34 18 71 15 82 -5 19 -36 64 -115 167 -14 18 -46 35 -99 53 -86 28 -128 31 -182 13z m153 -89 c36 -14 66 -33 75 -48 9 -14 19 -27 22 -30 3 -3 19 -22 34 -42 26 -35 27 -40 16 -85 -6 -26 -14 -59 -17 -73 -12 -57 -31 -83 -95 -130 -73 -55 -72 -55 -128 -38 -48 15 -65 43 -50 82 7 20 7 46 -1 93 -14 81 0 251 23 281 15 18 55 15 121 -10z"></path><path id="pQO7RfkQk" d="M7429 9676 c-3 -3 -39 -12 -81 -21 -61 -12 -93 -13 -162 -6 -48 6 -91 13 -95 16 -5 3 -62 2 -126 -2 -115 -6 -118 -7 -149 -38 -45 -45 -64 -125 -46 -199 20 -84 88 -146 161 -146 29 0 41 -6 55 -27 17 -25 19 -53 22 -243 2 -118 -2 -314 -9 -435 -7 -121 -14 -299 -16 -395 l-3 -175 -45 -41 c-47 -43 -156 -104 -185 -104 -9 0 -25 -9 -35 -20 -25 -27 -27 -135 -4 -167 23 -33 87 -76 139 -95 100 -36 155 -42 435 -44 364 -4 406 -4 463 -4 26 1 98 -2 160 -6 131 -7 186 4 231 47 49 46 84 140 72 191 -8 29 -17 83 -36 198 -12 78 -122 140 -222 126 -39 -5 -52 -14 -106 -72 -67 -72 -101 -94 -144 -94 -16 0 -46 -9 -68 -20 -22 -11 -46 -20 -53 -20 -20 0 -92 42 -94 54 -4 32 -11 385 -9 433 2 20 57 32 115 24 31 -4 57 -10 59 -12 118 -159 117 -158 192 -190 80 -35 155 11 194 117 25 64 27 167 10 375 -10 124 -17 154 -40 183 -5 6 -20 25 -34 42 -57 72 -169 46 -200 -47 -13 -38 -24 -42 -168 -64 l-98 -15 -27 27 c-26 26 -27 31 -24 123 1 52 6 118 11 145 6 28 13 72 16 98 9 65 57 119 131 147 80 29 153 26 242 -10 85 -35 86 -35 137 -120 102 -170 141 -210 203 -210 56 0 91 25 123 86 21 41 24 59 22 134 -2 48 -10 114 -19 146 -8 32 -19 73 -24 89 -22 84 -93 179 -159 215 -31 16 -302 11 -396 -8 -81 -16 -155 -10 -233 19 -53 19 -75 23 -83 15z m-264 -105 c90 -11 229 -5 262 11 16 8 33 6 70 -6 66 -24 188 -32 251 -16 29 6 119 13 202 15 l151 2 30 -28 c70 -65 110 -162 129 -315 9 -72 8 -82 -12 -124 -18 -35 -28 -45 -48 -45 -21 0 -39 22 -115 135 l-90 135 -75 37 c-41 20 -105 41 -142 48 -59 10 -74 9 -145 -10 -84 -24 -157 -70 -197 -124 -17 -23 -27 -59 -39 -146 -39 -280 -36 -317 31 -391 l46 -51 68 7 c37 3 116 14 175 24 115 20 133 31 133 84 0 26 22 56 42 57 11 0 65 -83 65 -100 1 -8 4 -107 8 -220 l7 -205 -30 -47 -31 -47 -41 17 c-31 13 -58 38 -108 102 -36 47 -67 87 -69 90 -10 11 -154 17 -208 8 -97 -17 -96 -15 -89 -202 3 -89 7 -206 8 -261 1 -112 15 -148 64 -166 15 -6 40 -17 56 -25 42 -20 103 -18 133 6 14 11 41 20 59 20 54 0 119 37 178 101 59 64 75 69 148 48 27 -7 39 -17 42 -32 3 -12 14 -70 26 -128 23 -117 19 -146 -29 -196 -20 -21 -30 -23 -140 -23 -65 0 -143 5 -174 11 -48 10 -60 9 -81 -5 -32 -20 -66 -20 -133 1 -49 15 -72 16 -231 5 -262 -17 -425 5 -506 69 -56 44 -54 91 4 104 44 10 173 98 215 148 l37 42 -3 170 c-2 99 5 264 15 395 20 248 18 623 -4 693 -14 48 -78 120 -98 112 -25 -9 -90 15 -111 41 -30 39 -36 87 -17 139 l17 44 67 4 c73 4 106 2 227 -12z"></path><path id="pDs2IXYVp" d="M3740 9659 c-52 -5 -144 -11 -203 -13 -76 -3 -115 -9 -132 -20 -72 -47 -112 -136 -92 -203 11 -36 87 -123 107 -123 6 0 20 -9 32 -20 12 -11 27 -20 34 -20 14 0 35 -52 62 -155 20 -74 22 -135 6 -217 -13 -66 -15 -124 -10 -283 7 -238 7 -250 7 -295 0 -19 0 -62 1 -95 1 -33 -2 -117 -6 -187 l-9 -128 -27 0 c-33 0 -90 -18 -110 -36 -9 -7 -22 -40 -29 -73 -13 -57 -12 -64 9 -118 13 -32 28 -63 34 -70 6 -6 51 -32 101 -57 80 -41 97 -46 158 -46 57 0 74 4 109 28 41 27 43 27 212 28 125 1 187 5 230 17 136 38 200 109 200 221 0 65 -11 95 -52 139 -21 22 -34 27 -73 27 -29 0 -61 8 -81 19 -18 10 -50 22 -71 26 -34 5 -41 12 -59 53 -30 68 -27 164 14 427 16 100 16 358 0 490 -27 227 -27 229 -1 256 13 14 54 40 91 57 57 27 78 32 143 32 80 0 124 -15 193 -67 49 -37 92 -101 92 -137 0 -42 66 -169 116 -221 65 -68 146 -80 198 -29 23 24 33 52 57 164 6 30 15 68 20 84 5 16 9 64 9 106 0 42 5 91 11 109 13 36 2 90 -36 176 -49 110 -104 134 -327 141 -272 8 -451 8 -549 0 -64 -6 -107 -5 -130 2 -51 17 -143 20 -249 11z m18 -91 c9 -9 18 -9 37 0 37 17 128 15 176 -5 36 -14 56 -15 163 -5 262 25 299 25 413 7 84 -14 122 -16 174 -9 52 8 74 7 110 -6 61 -21 63 -23 93 -84 26 -53 27 -58 20 -188 -3 -73 -14 -167 -24 -208 -10 -41 -22 -88 -25 -105 -8 -35 -22 -55 -41 -55 -44 0 -146 154 -159 241 -12 81 -108 178 -223 225 -69 28 -177 32 -261 8 -81 -22 -194 -101 -202 -139 -12 -56 -9 -140 11 -290 24 -180 25 -284 4 -430 -45 -327 -47 -431 -7 -510 23 -45 64 -85 87 -85 12 0 50 -14 86 -31 35 -16 76 -29 91 -27 38 4 56 -16 57 -64 3 -63 -26 -104 -96 -136 -54 -25 -66 -26 -234 -28 -176 -2 -178 -2 -244 -33 -36 -17 -80 -31 -97 -31 -16 0 -64 17 -105 38 -99 49 -126 93 -106 170 6 19 13 22 58 22 46 0 56 4 84 33 l32 33 4 200 c3 131 0 203 -7 212 -7 9 -4 21 12 43 18 24 20 33 10 45 -18 22 -30 318 -18 439 24 233 24 232 -16 356 -46 141 -60 169 -85 169 -30 0 -113 55 -133 89 -16 27 -16 34 -4 63 28 65 45 72 166 69 69 -1 111 2 116 8 8 15 68 14 83 -1z"></path><path id="p4iRnh6GT" d="M5825 9649 c-16 -6 -91 -12 -165 -14 -138 -5 -265 -17 -310 -31 -56 -17 -80 -64 -131 -249 -28 -103 -28 -196 -2 -255 59 -131 63 -138 109 -159 24 -12 60 -21 80 -21 73 0 174 101 174 175 0 19 4 43 9 53 5 9 14 29 21 44 15 32 137 98 216 118 48 12 54 12 90 -10 43 -26 76 -59 105 -105 15 -24 19 -49 19 -117 0 -83 -1 -88 -27 -108 -16 -12 -48 -40 -73 -63 -85 -79 -166 -126 -218 -127 -7 0 -31 -9 -55 -19 -23 -11 -51 -22 -62 -25 -11 -3 -31 -16 -45 -28 -14 -13 -50 -44 -80 -70 -131 -112 -212 -206 -223 -258 -15 -69 -41 -156 -50 -168 -18 -23 -11 -132 13 -197 22 -58 98 -183 126 -206 8 -6 14 -17 14 -24 0 -33 151 -165 189 -165 8 0 33 -8 55 -19 23 -10 55 -23 71 -29 42 -14 217 -15 295 -2 123 21 175 32 185 40 6 4 36 16 67 26 74 23 125 69 133 121 3 21 15 91 27 155 27 147 21 178 -40 225 -63 48 -117 55 -154 20 -7 -6 -24 -18 -38 -25 -14 -7 -38 -32 -53 -56 -47 -75 -105 -133 -159 -160 -81 -40 -107 -36 -181 31 -78 71 -77 69 -77 121 0 82 73 157 210 216 137 59 190 88 242 128 29 24 74 53 99 65 25 13 65 40 89 60 50 43 120 146 120 177 0 12 8 35 18 51 39 65 67 205 67 330 0 108 -27 208 -69 259 -12 13 -33 40 -48 59 -34 43 -128 115 -188 144 -66 31 -99 41 -160 48 -30 4 -79 18 -108 31 -56 26 -80 28 -127 13z m105 -94 c17 -9 69 -22 117 -31 154 -26 279 -117 353 -255 31 -57 35 -74 38 -159 5 -105 -17 -238 -48 -300 -9 -19 -20 -48 -24 -63 -16 -67 -105 -165 -184 -203 -20 -9 -64 -38 -98 -64 -34 -26 -118 -72 -194 -106 -144 -64 -212 -115 -269 -201 -33 -49 -38 -86 -21 -157 12 -55 138 -182 195 -197 114 -31 239 34 348 181 42 57 56 70 94 91 18 10 26 8 52 -12 37 -29 39 -56 11 -174 -11 -47 -20 -98 -20 -114 0 -37 -33 -66 -97 -84 -28 -9 -61 -21 -73 -27 -69 -37 -393 -48 -443 -15 -12 7 -42 19 -67 25 -62 15 -133 70 -166 127 -15 26 -42 66 -60 88 -70 88 -118 221 -94 265 10 18 40 121 57 190 3 14 16 36 28 50 12 14 26 32 31 41 18 32 224 200 270 220 27 11 83 31 124 45 84 26 97 35 232 152 93 81 95 84 102 135 12 105 7 161 -19 214 -33 65 -117 144 -178 168 -42 16 -56 17 -110 7 -78 -14 -212 -80 -253 -124 -33 -36 -59 -98 -70 -166 -9 -55 -63 -107 -103 -97 -14 3 -33 14 -42 23 -29 31 -69 138 -69 185 0 54 43 223 70 276 18 37 21 38 87 46 37 4 118 9 178 11 61 1 130 7 155 12 69 15 128 14 160 -3z"></path><path id="pFAwQXwz8" d="M7146 7513 c-20 -20 -364 -25 -2308 -31 l-2098 -7 -27 -28 c-24 -23 -28 -35 -26 -77 3 -58 33 -133 69 -171 31 -33 84 -56 147 -64 33 -4 59 -16 81 -36 23 -20 45 -29 67 -29 19 0 54 -10 79 -22 51 -25 3 -23 765 -37 264 -5 496 -9 516 -10 34 -1 42 -7 104 -91 78 -104 102 -126 159 -141 22 -5 65 -21 94 -35 29 -13 55 -24 59 -24 12 0 108 -64 173 -115 36 -29 83 -62 105 -75 135 -79 350 -274 391 -352 14 -27 14 -37 -1 -102 -13 -54 -18 -137 -21 -341 -3 -189 -9 -295 -20 -352 -10 -48 -14 -101 -10 -130 3 -26 9 -92 12 -145 5 -80 4 -98 -8 -98 -7 0 -47 -16 -88 -36 -40 -19 -97 -40 -124 -46 -129 -26 -526 -206 -632 -285 -198 -147 -319 -272 -609 -628 -44 -55 -130 -153 -191 -219 -118 -129 -114 -126 -243 -146 -108 -17 -272 -89 -412 -181 -50 -33 -98 -59 -107 -57 -16 3 -80 183 -81 228 -1 37 8 46 76 80 60 30 61 32 97 114 23 54 36 100 36 128 0 37 5 48 30 66 48 36 58 59 91 217 39 188 37 245 -10 287 -40 35 -91 37 -152 5 -24 -13 -69 -32 -99 -42 -79 -25 -108 -42 -170 -94 -105 -89 -282 -275 -308 -326 l-27 -50 5 -200 c8 -347 -2 -639 -22 -651 -5 -3 -15 0 -23 6 -11 9 -13 26 -9 69 6 54 4 59 -49 145 -44 73 -63 94 -106 120 -45 26 -56 39 -74 86 -20 50 -30 60 -104 110 -126 84 -228 141 -266 147 -54 8 -92 -18 -127 -87 -39 -76 -39 -121 0 -264 65 -236 84 -286 161 -426 67 -121 75 -128 245 -229 129 -77 261 -177 369 -280 108 -104 171 -138 305 -165 87 -18 117 -8 240 80 58 42 152 98 208 125 57 28 121 61 143 74 50 32 55 31 68 -7 6 -17 22 -45 35 -63 13 -17 38 -62 55 -101 19 -40 51 -88 77 -115 41 -42 48 -56 79 -170 51 -181 116 -324 204 -449 65 -93 218 -247 327 -332 52 -40 94 -78 94 -84 0 -6 -7 -17 -15 -24 -16 -13 -28 -12 -143 14 -46 10 -74 11 -99 4 -26 -7 -46 -5 -81 6 -25 9 -57 16 -70 16 -14 0 -46 13 -71 29 -135 87 -206 92 -292 20 -51 -43 -109 -139 -109 -182 0 -11 -9 -31 -20 -47 -30 -43 -60 -118 -60 -153 0 -41 34 -134 59 -161 10 -12 26 -35 34 -52 9 -16 47 -60 86 -97 53 -49 80 -68 108 -72 21 -4 55 -13 76 -21 25 -9 55 -12 85 -8 39 5 55 1 92 -20 25 -14 55 -26 68 -26 12 0 46 -14 75 -30 30 -17 60 -30 68 -30 8 0 45 -16 82 -36 50 -27 72 -45 86 -72 24 -47 66 -89 113 -113 46 -23 147 -25 208 -4 58 21 107 19 141 -5 15 -12 53 -29 84 -40 31 -10 75 -34 98 -53 23 -18 56 -42 73 -53 18 -10 55 -38 84 -62 59 -48 80 -51 126 -20 51 35 67 71 61 134 -7 68 7 84 70 84 41 0 49 5 97 53 28 28 68 65 89 80 49 37 172 190 202 252 67 137 90 332 61 500 -8 44 -17 118 -21 165 -14 176 -54 365 -178 851 -69 269 -95 342 -159 450 -21 37 -41 82 -44 101 -5 31 0 40 63 108 120 130 296 300 368 354 39 30 108 74 154 100 45 25 105 62 131 81 27 20 79 47 117 60 234 82 363 145 453 219 30 25 78 63 105 85 89 69 273 273 351 390 17 25 45 84 61 131 17 47 44 117 60 155 51 119 64 211 41 287 -14 49 -5 60 76 83 105 29 258 138 334 238 32 41 54 87 83 172 36 108 39 124 39 228 0 219 -51 368 -165 477 -26 25 -55 62 -66 82 -10 20 -29 40 -41 43 -29 9 -82 59 -117 110 -38 55 -60 126 -68 215 -7 89 -22 124 -61 138 -41 14 -78 -5 -137 -70 -63 -69 -105 -153 -105 -210 0 -24 -4 -58 -9 -75 -12 -43 9 -164 39 -223 24 -47 140 -198 184 -239 83 -77 44 -337 -71 -471 -47 -55 -67 -52 -138 21 -108 109 -289 218 -450 269 -66 21 -135 59 -135 75 0 14 58 101 134 200 16 22 78 90 137 150 146 150 154 182 90 336 -20 49 -61 113 -116 185 -151 194 -198 257 -265 354 -36 52 -76 110 -90 127 l-23 33 28 57 c16 32 34 61 40 65 5 4 107 8 226 8 160 0 225 4 250 14 19 7 79 16 134 20 106 7 177 31 224 76 91 88 54 275 -62 319 -33 13 -70 14 -81 4z m93 -109 c29 -37 29 -121 1 -157 -46 -59 -180 -77 -613 -83 l-278 -5 6 -43 c7 -45 -8 -89 -39 -115 -31 -26 -18 -65 59 -180 91 -134 201 -282 306 -409 87 -105 149 -231 149 -302 0 -38 -6 -47 -103 -148 -56 -59 -125 -136 -152 -172 -80 -104 -184 -264 -178 -273 7 -12 137 -70 270 -122 61 -24 126 -51 145 -60 76 -39 200 -130 250 -185 69 -74 121 -94 174 -65 109 59 204 262 204 438 0 123 -16 160 -122 274 -49 54 -102 121 -119 148 -27 47 -29 57 -29 154 0 132 10 165 77 246 70 84 83 84 83 2 0 -77 22 -164 58 -231 16 -31 80 -104 163 -188 193 -192 229 -270 229 -492 0 -91 -4 -112 -39 -214 -45 -129 -95 -204 -166 -248 -25 -16 -68 -43 -94 -61 -27 -17 -75 -39 -107 -49 -78 -22 -110 -39 -130 -69 -15 -23 -15 -30 1 -96 23 -92 16 -145 -33 -251 -22 -47 -54 -128 -71 -180 -29 -87 -39 -103 -124 -204 -230 -273 -396 -399 -652 -498 -208 -81 -240 -96 -291 -134 -27 -20 -79 -52 -114 -69 -100 -50 -258 -183 -447 -377 l-173 -177 0 -67 c0 -61 4 -74 46 -147 25 -44 59 -107 76 -139 33 -65 126 -411 159 -591 11 -60 29 -141 39 -180 16 -64 26 -110 51 -235 4 -25 11 -81 14 -125 4 -44 13 -113 22 -153 23 -110 14 -304 -19 -399 -33 -95 -63 -139 -178 -253 -98 -98 -89 -92 -310 -199 -38 -18 -39 -23 -20 -105 10 -41 10 -50 -4 -64 -11 -12 -20 -14 -29 -7 -8 6 -42 29 -78 52 -35 23 -83 57 -106 74 -23 18 -62 38 -87 44 -24 6 -60 24 -80 38 -19 15 -57 32 -85 39 -43 10 -58 8 -120 -12 -126 -40 -194 -15 -244 90 -21 43 -32 52 -107 85 -20 8 -44 29 -54 46 -13 22 -23 28 -34 23 -50 -21 -68 -16 -101 25 -27 34 -36 39 -51 31 -30 -16 -50 -12 -90 20 -43 34 -60 37 -96 14 -23 -15 -28 -15 -62 -1 -20 9 -53 19 -72 22 -46 9 -109 69 -171 164 -83 126 -85 166 -13 250 24 28 34 48 31 61 -10 37 16 88 68 140 52 51 54 52 88 41 19 -7 67 -34 106 -61 44 -32 81 -50 99 -50 16 0 52 -7 82 -16 43 -13 61 -14 94 -4 44 12 101 4 176 -26 41 -16 41 -16 104 15 54 28 72 32 122 29 55 -3 59 -1 62 19 3 17 -3 26 -23 33 -15 6 -56 34 -92 63 -36 28 -104 83 -151 121 -138 110 -217 193 -296 311 -79 118 -133 235 -164 355 -49 186 -52 192 -108 250 -32 33 -65 81 -83 120 -16 36 -41 76 -55 89 -14 14 -28 40 -31 60 -9 54 -36 101 -61 107 -17 4 -37 -4 -71 -29 -42 -30 -210 -117 -227 -117 -9 0 -77 -45 -185 -123 -51 -37 -105 -70 -118 -73 -26 -7 -85 6 -171 38 -46 17 -77 40 -162 123 -134 130 -319 269 -440 330 -74 37 -99 64 -150 166 -60 119 -110 241 -110 270 0 11 -16 73 -35 137 -35 115 -35 119 -20 162 9 24 23 52 32 62 15 17 20 16 111 -32 114 -62 210 -128 217 -151 3 -9 1 -35 -4 -58 -8 -37 -7 -41 10 -41 11 0 46 -13 79 -30 51 -26 63 -37 92 -92 29 -55 33 -72 33 -137 l0 -73 105 -74 c99 -69 176 -118 299 -192 42 -26 56 -30 67 -21 18 15 18 39 1 39 -19 0 -178 122 -216 165 -30 35 -31 39 -31 129 0 51 5 140 11 197 7 72 7 181 0 349 -12 309 -19 288 162 467 157 155 182 174 267 204 36 13 83 34 105 46 59 34 72 30 79 -20 4 -24 4 -50 1 -59 -3 -8 -14 -68 -24 -133 -22 -139 -35 -158 -120 -170 -28 -4 -53 -11 -56 -15 -3 -5 6 -20 20 -34 32 -32 33 -76 1 -149 -30 -66 -57 -87 -113 -87 -50 0 -53 -6 -72 -107 -11 -58 -10 -68 13 -130 13 -38 38 -106 54 -152 44 -122 48 -124 131 -78 38 20 108 64 156 97 107 72 212 114 359 141 61 12 123 25 138 31 14 5 52 41 85 80 32 39 83 98 113 132 30 34 107 124 170 200 237 287 405 462 540 563 143 106 391 224 605 287 61 18 130 43 155 56 25 13 72 26 104 29 79 8 88 23 54 93 -22 45 -27 72 -33 175 -5 98 -3 128 9 158 13 30 16 82 16 270 0 240 8 340 37 457 17 66 17 67 -7 120 -45 98 -261 295 -421 386 -31 17 -89 59 -130 92 -81 67 -234 147 -313 164 -41 9 -55 18 -73 46 -12 19 -38 57 -58 84 -19 27 -35 56 -35 66 0 51 7 51 -1100 64 -228 3 -248 4 -287 24 -23 12 -55 22 -70 22 -20 0 -32 8 -44 28 -13 24 -25 29 -95 40 -43 6 -90 20 -104 30 -26 19 -54 68 -65 115 l-7 27 163 0 c90 0 1060 1 2154 2 1806 3 1994 5 2030 19 63 26 100 23 124 -7z"></path><path id="p1DpCRBEyu" d="M5460 7055 c-30 -8 -69 -14 -87 -15 -39 0 -47 -11 -32 -44 10 -20 9 -42 -1 -96 -13 -67 -12 -72 7 -98 11 -15 58 -54 106 -88 47 -33 103 -76 124 -95 21 -19 56 -45 78 -58 115 -69 299 -197 313 -220 14 -20 17 -51 18 -156 0 -122 13 -248 29 -287 10 -25 25 -22 65 11 19 15 49 35 65 44 44 22 168 156 204 219 48 83 39 153 -39 308 -51 102 -84 145 -229 298 -141 147 -222 209 -307 231 -22 6 -51 22 -64 36 -22 23 -30 25 -109 24 -47 0 -111 -7 -141 -14z m201 -89 c15 -7 58 -24 95 -36 65 -22 76 -30 193 -149 68 -69 148 -156 178 -193 59 -74 163 -283 163 -328 0 -34 -39 -88 -124 -169 -58 -55 -69 -62 -81 -50 -22 22 -30 122 -15 184 10 44 11 62 0 99 -14 52 -68 119 -113 143 -47 24 -283 181 -320 212 -18 15 -69 53 -114 85 -45 32 -84 65 -88 73 -8 22 6 112 19 121 6 4 43 10 81 13 39 3 77 6 85 7 8 1 27 -4 41 -12z"></path></g></g></svg>